<svg xmlns="http://www.w3.org/2000/svg" viewBox="0 0 623.62 255.12"><defs><style>.cls-1{fill:#fff;}</style></defs><title>doing</title><g id="BG"><rect class="cls-1" width="623.62" height="255.12"/></g><g id="Logo"><rect width="623.62" height="255.12"/><path class="cls-1" d="M447.55,227.32c-7.33,0-14.38.15-21.42-.16-1.14,0-2.71-2-3.18-3.33-6.87-19.73-13.57-39.51-20.32-59.28q-11.06-32.38-22.14-64.75a6.69,6.69,0,0,0-2-3.29V227.06H356.11V27.67c7.42,0,14.7-.13,22,.16,1,0,2.3,2.05,2.76,3.39q11.75,34,23.28,68,9.63,28.2,19.27,56.4a5.4,5.4,0,0,0,1.76,2.77V27.88h22.4Z"/><path class="cls-1" d="M50.62,227.36V27.74h3.69c13.74,0,27.49,0,41.23,0,26.3.09,46.53,20,46.64,46.18q.23,53.75,0,107.49c-.12,26.07-20.29,45.88-46.4,45.93-13.74,0-27.48,0-41.22,0ZM73,204.92c7.88,0,15.31.05,22.75,0,13.68-.11,23.78-10.11,24-23.8.09-5.9,0-11.8,0-17.71q0-44.25,0-88.52c0-11.89-7.09-22.22-17.94-23.66C92.44,50,82.75,51,73,51Z"/><path class="cls-1" d="M175.25,127.89q0-26.77,0-53.53c0-25,18.56-45,43.09-46.55,24.15-1.55,45.22,16.09,48.44,40.61a44.25,44.25,0,0,1,.23,5.76q0,53.34,0,106.67c0,24.38-18.29,44.75-41.57,46.39-25.39,1.8-46.5-15.12-49.93-40.06a49.13,49.13,0,0,1-.27-6.54Q175.23,154.27,175.25,127.89Zm22.42-.55c0,18.1-.13,36.2.05,54.3a23.42,23.42,0,0,0,46.83.15q.27-54.1,0-108.2c0-8.72-4.09-15.56-11.63-20a23.32,23.32,0,0,0-35.19,19.87C197.46,91.4,197.68,109.37,197.67,127.34Z"/><path class="cls-1" d="M550.13,139.13c-6.46,0-13-.14-19.48.06-2.86.08-3.82-.76-3.72-3.68.2-6.13.06-12.27.06-18.68h45.79c.07,1.24.19,2.37.19,3.49,0,20.41.06,40.82,0,61.23a45.88,45.88,0,0,1-90.62,10.2,45.21,45.21,0,0,1-1.11-9.91c-.07-36.2-.18-72.4,0-108.61a45.91,45.91,0,0,1,91.56-4.44c.15,1.5,0,3,0,4.8H550.94c-.55-2.43-.89-4.84-1.64-7.13a23.21,23.21,0,0,0-25.15-15.91c-11.76,1.67-20.32,11-20.47,22.85-.21,16.56-.08,33.12-.08,49.68,0,19.13-.08,38.26,0,57.38s19.2,30.53,35.12,21.29c7.18-4.17,11.43-10.57,11.66-18.8.4-14.11.13-28.24.13-42.36A7.58,7.58,0,0,0,550.13,139.13Z"/><path class="cls-1" d="M322.3,227.16H300.4V27.91h21.9Z"/></g></svg>