<?xml version="1.0" encoding="utf-8"?>
<!-- Generator: Adobe Illustrator 19.2.0, SVG Export Plug-In . SVG Version: 6.00 Build 0)  -->
<svg version="1.1" id="Livello_1" xmlns="http://www.w3.org/2000/svg" xmlns:xlink="http://www.w3.org/1999/xlink" x="0px" y="0px"
	 viewBox="0 0 481.5 149.5" style="enable-background:new 0 0 481.5 149.5;" xml:space="preserve">
<style type="text/css">
	.st0{fill:#FF6600;}
	.st1{fill:#6D6E70;stroke:#6D6E70;stroke-width:0.1;}
</style>
<g>
	<g>
		<g>
			<g>
				<path class="st0" d="M144.3,61.8h-8.1V51h8.1c0-14.6,5.1-19.2,19.4-19.2c2.6,0,5.4,0.2,8.1,0.3V44c-1.6-0.2-3-0.3-4.5-0.3
					c-3.8,0-6.2,0.5-6.2,5.1V51h10v10.8h-10V102h-16.7L144.3,61.8L144.3,61.8z"/>
				<path class="st0" d="M168.4,66.8c0.3-6.7,3.4-11,8-13.7c4.5-2.6,10.4-3.5,16.2-3.5c12.1,0,23.8,2.6,23.8,17.1v22.3
					c0,4.3,0,9,2,13.1h-16.8c-0.6-1.6-0.8-3.1-1-4.8c-4.3,4.5-10.7,6.3-16.8,6.3c-9.7,0-17.4-4.9-17.4-15.4
					c0-16.6,18.1-15.3,29.7-17.7c2.8-0.6,4.4-1.6,4.4-4.7c0-3.8-4.6-5.3-8.1-5.3c-4.6,0-7.6,2.1-8.3,6.4L168.4,66.8L168.4,66.8z
					 M190,93.2c8,0,10.6-4.5,10.2-15c-2.4,1.5-6.7,1.8-10.3,2.7c-3.7,0.9-6.9,2.5-6.9,6.5C183.1,91.5,186.3,93.2,190,93.2z"/>
				<path class="st0" d="M252.7,69.7c-0.1-4.3-3.9-7.4-8.2-7.4c-9.3,0-10.8,8-10.8,15c0,6.6,2.8,13.4,9.9,13.4
					c5.8,0,8.7-3.3,9.5-8.7h16.2c-1.5,13.7-12.1,21.5-25.6,21.5c-15.3,0-26.7-10.5-26.7-26.1c0-16.2,10.3-27.8,26.7-27.8
					c12.7,0,24,6.7,25.1,20.1L252.7,69.7L252.7,69.7z"/>
				<path class="st0" d="M287.2,44.7h-16.7V31.9h16.7L287.2,44.7L287.2,44.7z M270.5,51h16.7v51h-16.7V51z"/>
				<path class="st0" d="M291.7,31.9h16.7V102h-16.7V31.9z"/>
				<path class="st0" d="M326.6,80.6c0.3,7,4.3,11.6,11.4,11.6c4,0,8-1.9,9.5-5.6h15.6c-3,11.8-13.9,16.9-25.3,16.9
					c-16.6,0-27.9-10-27.9-27.1c0-15.6,12.5-26.8,27.5-26.8c18.3,0,27.4,13.8,26.6,31L326.6,80.6L326.6,80.6z M347.3,71.3
					c-0.3-5.7-4.3-10.4-9.9-10.4c-5.9,0-9.8,4.2-10.8,10.4H347.3z"/>
				<path class="st0" d="M365.3,83.7h18.3V102h-18.3V83.7L365.3,83.7z"/>
				<path class="st0" d="M405,44.7h-16.7V31.9H405V44.7z M388.3,51H405v51h-16.7V51L388.3,51z"/>
				<path class="st0" d="M439.6,61.8h-10.3V85c0,4,2.4,4.9,6,4.9c1.4,0,2.9-0.2,4.3-0.2V102c-3,0.1-6.1,0.5-9.1,0.5
					c-14.2,0-17.9-4.1-17.9-18V61.8h-8.4V51h8.4V35.6h16.7V51h10.3L439.6,61.8L439.6,61.8z"/>
			</g>
			<path class="st0" d="M122,84.2c0-3.8,0-24.2,0-24.2c0-25.2-20.4-45.6-45.6-45.6H49.3c-25.2,0-45.6,20.4-45.6,45.6l0,27.1
				c0,25.2,20.4,45.6,45.6,45.6h88.9C138.2,132.7,122,127.9,122,84.2z M45.9,112.3c-7.6,0-14-3.7-18.1-9.5
				c-2.5-3.6-3.9-7.8-3.9-12.6V56.7c0-7.6,3.7-14,9.5-18.1c3.6-2.5,7.8-3.9,12.5-3.9h33.6h0c7.6,0,14.1,3.7,18.1,9.5
				c2.5,3.6,3.9,7.7,3.9,12.5c0,0,0,25.3,0,30.1c0,9.4,0.5,17.9,1.5,25.6L45.9,112.3z"/>
			<g>
				<path class="st0" d="M89.5,80.2c-16.6,7.8-35.9,7.8-52.6,0c1.6-3.5,3.3-6.9,4.9-10.4c13.5,6.4,29.2,6.4,42.7,0
					C86.2,73.3,87.8,76.8,89.5,80.2z"/>
			</g>
		</g>
		<g>
			<path class="st1" d="M144,114.5h9.2c3.3,0,6.1,1.5,6.1,4.9c0,2.4-1.3,4.3-3.9,4.8v0.1c2.6,0.3,3.4,2,3.5,4.2
				c0.1,1.3,0.1,3.9,0.9,4.8h-2.1c-0.5-0.7-0.5-2.1-0.5-2.9c-0.2-2.6-0.4-5.5-4-5.4h-7.2v8.3H144L144,114.5L144,114.5z M145.9,123.4
				h7.1c2.3,0,4.3-1.4,4.3-3.6c0-2.3-1.5-3.7-4.3-3.7h-7.1V123.4z"/>
			<path class="st1" d="M162.9,114.5h1.9v18.7h-1.9V114.5z"/>
			<path class="st1" d="M169.9,127c-0.1,3.9,2.9,5,6.6,5c2.1,0,5.3-1.1,5.3-3.8c0-2.1-2.3-3-4.1-3.4l-4.5-1
				c-2.4-0.6-4.5-1.6-4.5-4.5c0-1.8,1.3-5.3,6.9-5.3c4,0,7.4,2,7.4,5.8H181c-0.1-2.9-2.6-4.3-5.5-4.3c-2.6,0-5,0.9-5,3.7
				c0,1.8,1.4,2.5,3,2.9l4.9,1.1c2.8,0.7,5.2,1.9,5.2,4.9c0,1.3-0.6,5.4-7.7,5.4c-4.7,0-8.2-2-8-6.6L169.9,127L169.9,127L169.9,127z
				"/>
			<path class="st1" d="M186.7,114.5h8.9c3.6,0,6,2,6,5.4c0,3.4-2.4,5.4-6,5.4h-7v8h-1.9V114.5L186.7,114.5z M188.6,123.6h6.6
				c2.6,0,4.5-1.3,4.5-3.8c0-2.6-1.8-3.8-4.5-3.8h-6.6V123.6L188.6,123.6z"/>
			<path class="st1" d="M208.2,114.5h2.1l7.9,18.7h-2.1l-2.4-5.8h-9.1l-2.4,5.8h-2.1L208.2,114.5z M205.1,125.8h7.9l-3.9-9.6
				L205.1,125.8z"/>
			<path class="st1" d="M220,114.5h9.2c3.3,0,6.1,1.5,6.1,4.9c0,2.4-1.3,4.3-3.9,4.8v0.1c2.6,0.3,3.4,2,3.5,4.2
				c0.1,1.3,0.1,3.9,0.9,4.8h-2.1c-0.5-0.7-0.5-2.1-0.5-2.9c-0.2-2.6-0.4-5.5-4-5.4h-7.3v8.3H220L220,114.5L220,114.5z M221.9,123.4
				h7.1c2.3,0,4.3-1.4,4.3-3.6c0-2.3-1.5-3.7-4.3-3.7h-7.1V123.4z"/>
			<path class="st1" d="M238.7,114.5h2.8l6.9,16.4l6.9-16.4h2.8v18.7h-1.9V117h-0.1l-6.9,16.2h-1.8l-6.9-16.2h-0.1v16.2h-1.9
				L238.7,114.5L238.7,114.5z"/>
			<path class="st1" d="M262.3,114.5h1.9v18.7h-1.9V114.5z"/>
			<path class="st1" d="M274.2,114.5h2.1l7.9,18.7h-2.1l-2.4-5.8h-9.1l-2.4,5.8h-2.1L274.2,114.5z M271.2,125.8h7.9l-3.9-9.6
				L271.2,125.8z"/>
			<path class="st1" d="M286.1,114.5h9.2c3.3,0,6.1,1.5,6.1,4.9c0,2.4-1.3,4.3-3.9,4.8v0.1c2.6,0.3,3.4,2,3.5,4.2
				c0.1,1.3,0.1,3.9,0.9,4.8h-2.1c-0.5-0.7-0.5-2.1-0.5-2.9c-0.2-2.6-0.4-5.5-4-5.4H288v8.3h-1.9L286.1,114.5L286.1,114.5z
				 M288,123.4h7.1c2.3,0,4.3-1.4,4.3-3.6c0-2.3-1.5-3.7-4.3-3.7H288V123.4z"/>
			<path class="st1" d="M304.8,114.5h13.9v1.5h-11.9v6.8h11.2v1.5h-11.2v7.4h12.1v1.5h-14L304.8,114.5L304.8,114.5z"/>
			<path class="st1" d="M329.3,114.5h13.9v1.5h-11.9v6.8h11.2v1.5h-11.2v7.4h12.1v1.5h-14L329.3,114.5L329.3,114.5z M332.1,109.3
				h2.2l3,3.7h-1.4L332.1,109.3z"/>
			<path class="st1" d="M353.7,114.5h12.7v1.5h-10.8v6.8h9.6v1.5h-9.6v8.9h-1.9L353.7,114.5L353.7,114.5z"/>
			<path class="st1" d="M373.2,114.5h2.1l7.9,18.7h-2.1l-2.4-5.8h-9.1l-2.4,5.8h-2.1L373.2,114.5z M370.1,125.8h7.9l-3.9-9.6
				L370.1,125.8z"/>
			<path class="st1" d="M399.7,120.1c-0.7-2.9-3.2-4.5-6.2-4.5c-5.3,0-7.6,4.1-7.6,8.2c0,4.1,2.2,8.2,7.6,8.2c3.7,0,6.1-2.7,6.4-6
				h1.9c-0.5,4.6-3.7,7.5-8.3,7.5c-6.3,0-9.5-4.6-9.5-9.8c0-5.1,3.1-9.8,9.5-9.8c3.8,0,7.6,2.1,8.1,6.1L399.7,120.1L399.7,120.1z"/>
			<path class="st1" d="M404.9,114.5h1.9v18.7h-1.9V114.5z"/>
			<path class="st1" d="M411,114.5h1.9v17.2h11.2v1.5H411L411,114.5L411,114.5z"/>
			<path class="st1" d="M426.1,114.5h13.9v1.5H428v6.8h11.2v1.5H428v7.4h12.1v1.5h-14L426.1,114.5L426.1,114.5z"/>
		</g>
	</g>
</g>
</svg>
