<svg xmlns="http://www.w3.org/2000/svg" xmlns:xlink="http://www.w3.org/1999/xlink" viewBox="0 0 623.62 255.12"><defs><style>.cls-1,.cls-2,.cls-6,.cls-8{fill:none;}.cls-1{clip-rule:evenodd;}.cls-3{fill:#fff;}.cls-4{clip-path:url(#clip-path);}.cls-5{clip-path:url(#clip-path-2);}.cls-6{stroke:#adc8da;stroke-width:4px;}.cls-6,.cls-8{stroke-miterlimit:10;}.cls-7{clip-path:url(#clip-path-3);}.cls-8{stroke:#366b8d;stroke-width:2px;}.cls-9{clip-path:url(#clip-path-5);}.cls-10{fill:#366b8d;}</style><clipPath id="clip-path"><path class="cls-1" d="M33.52,120.74a18,18,0,0,0,0,35.94H105.1a18,18,0,0,0,0-35.94h-.84a13.56,13.56,0,0,0-21.89-8.12,24.67,24.67,0,0,0-46.88,8.12Z"/></clipPath><clipPath id="clip-path-2"><rect class="cls-2" x="15.62" y="98.44" width="593.33" height="58.24"/></clipPath><clipPath id="clip-path-3"><path class="cls-1" d="M66.58,129.38A3.64,3.64,0,1,1,62.94,133a3.64,3.64,0,0,1,3.64-3.64Zm.66-12.74a2.63,2.63,0,0,1,2.63,2.63V121a12.38,12.38,0,0,1,3,1.25l1.51-1.51a2.63,2.63,0,0,1,3.72,0l.93.93a2.61,2.61,0,0,1,0,3.71L77.46,127a12.6,12.6,0,0,1,1.16,2.87h1.71A2.62,2.62,0,0,1,83,132.44v1.32a2.63,2.63,0,0,1-2.63,2.63H78.6a12.6,12.6,0,0,1-1.2,2.88l1.6,1.61a2.61,2.61,0,0,1,0,3.71l-.93.93a2.63,2.63,0,0,1-3.72,0l-1.61-1.61a12.47,12.47,0,0,1-2.87,1.18v1.68a2.63,2.63,0,0,1-2.63,2.63H65.92a2.62,2.62,0,0,1-2.62-2.63v-1.68a12.55,12.55,0,0,1-2.88-1.18l-1.61,1.61a2.63,2.63,0,0,1-3.72,0l-.93-.93a2.63,2.63,0,0,1,0-3.71l1.61-1.61a12.2,12.2,0,0,1-1.21-2.88H52.83a2.63,2.63,0,0,1-2.63-2.63v-1.32a2.62,2.62,0,0,1,2.63-2.62h1.71A12.6,12.6,0,0,1,55.7,127l-1.54-1.54a2.63,2.63,0,0,1,0-3.71l.93-.93a2.63,2.63,0,0,1,3.72,0l1.51,1.51a12.28,12.28,0,0,1,3-1.25v-1.76a2.62,2.62,0,0,1,2.62-2.63Z"/></clipPath><clipPath id="clip-path-5"><path class="cls-1" d="M604.28,154.86V119.54l-22.81,35.32h-3.35l-22.85-35.47v35.47H551.5V113.34h4L579.9,151,604,113.34h4v41.52Zm-94-37.86L498,140.45h24.51Zm19.79,37.86-5.71-10.94H496.2l-5.71,10.94h-4.14l21.72-41.52h4.44l21.73,41.52Zm-93.83,0V113.34h34.6v3.54H440.38v14.29h28.95v3.51H440.38v16.65h30.94v3.53Zm-36.14-38.07v38.07h-3.75V116.79H377.5v-3.45H419v3.45Zm-39.65,17.34a19.72,19.72,0,0,0-1.43-7.79,14.65,14.65,0,0,0-4.25-5.7,19,19,0,0,0-7-3.5,39.89,39.89,0,0,0-19.46,0,19.74,19.74,0,0,0-7.06,3.52,14.78,14.78,0,0,0-4.29,5.71,21.57,21.57,0,0,0,0,15.55,14.78,14.78,0,0,0,4.29,5.69,19.57,19.57,0,0,0,7.06,3.51,40.37,40.37,0,0,0,19.46,0,19.15,19.15,0,0,0,7-3.51,14.69,14.69,0,0,0,4.25-5.69,19.81,19.81,0,0,0,1.43-7.8Zm3.9,0a21.44,21.44,0,0,1-2,9.66,18.62,18.62,0,0,1-5.56,6.7,24,24,0,0,1-8.34,3.92,43.18,43.18,0,0,1-20.79,0,24.29,24.29,0,0,1-8.4-3.92,18.4,18.4,0,0,1-5.59-6.7,21.44,21.44,0,0,1-2-9.66,23,23,0,0,1,.93-6.75,19.34,19.34,0,0,1,2.63-5.44,17.7,17.7,0,0,1,4.09-4.15,24.37,24.37,0,0,1,5.35-2.92,30.65,30.65,0,0,1,6.33-1.72,43.93,43.93,0,0,1,7.1-.56,40.36,40.36,0,0,1,10.37,1.27,24,24,0,0,1,8.34,3.91,18.65,18.65,0,0,1,5.56,6.71,21.43,21.43,0,0,1,2,9.65Zm-77,20.73L251.31,118.3v36.56h-3.78V113.34h4.17L287.78,150V113.34h3.72v41.52Zm-67,0L184.29,118.3v36.56h-3.78V113.34h4.17L220.76,150V113.34h3.71v41.52Zm-66.72,0V113.34h3.78v41.52Z"/></clipPath></defs><title>innoteam</title><g id="BG"><rect class="cls-3" width="623.62" height="255.12"/></g><g id="Logo"><g class="cls-4"><g class="cls-5"><path class="cls-6" d="M33.52,120.74a18,18,0,0,0,0,35.94H105.1a18,18,0,0,0,0-35.94h-.84a13.56,13.56,0,0,0-21.89-8.12,24.67,24.67,0,0,0-46.88,8.12Z"/></g></g><g class="cls-7"><g class="cls-5"><path class="cls-8" d="M66.58,129.38A3.64,3.64,0,1,1,62.94,133a3.64,3.64,0,0,1,3.64-3.64Zm.66-12.74a2.63,2.63,0,0,1,2.63,2.63V121a12.38,12.38,0,0,1,3,1.25l1.51-1.51a2.63,2.63,0,0,1,3.72,0l.93.93a2.61,2.61,0,0,1,0,3.71L77.46,127a12.6,12.6,0,0,1,1.16,2.87h1.71A2.62,2.62,0,0,1,83,132.44v1.32a2.63,2.63,0,0,1-2.63,2.63H78.6a12.6,12.6,0,0,1-1.2,2.88l1.6,1.61a2.61,2.61,0,0,1,0,3.71l-.93.93a2.63,2.63,0,0,1-3.72,0l-1.61-1.61a12.47,12.47,0,0,1-2.87,1.18v1.68a2.63,2.63,0,0,1-2.63,2.63H65.92a2.62,2.62,0,0,1-2.62-2.63v-1.68a12.55,12.55,0,0,1-2.88-1.18l-1.61,1.61a2.63,2.63,0,0,1-3.72,0l-.93-.93a2.63,2.63,0,0,1,0-3.71l1.61-1.61a12.2,12.2,0,0,1-1.21-2.88H52.83a2.63,2.63,0,0,1-2.63-2.63v-1.32a2.62,2.62,0,0,1,2.63-2.62h1.71A12.6,12.6,0,0,1,55.7,127l-1.54-1.54a2.63,2.63,0,0,1,0-3.71l.93-.93a2.63,2.63,0,0,1,3.72,0l1.51,1.51a12.28,12.28,0,0,1,3-1.25v-1.76a2.62,2.62,0,0,1,2.62-2.63Z"/></g></g><g class="cls-9"><g class="cls-5"><rect class="cls-10" x="144.54" y="103.49" width="472.56" height="61.29"/></g></g></g></svg>