<svg xmlns="http://www.w3.org/2000/svg" viewBox="0 0 623.62 255.12"><defs><style>.cls-1{fill:#fff;}.cls-2{fill:#007dc4;}</style></defs><title>mado</title><g id="BG"><rect class="cls-1" width="623.62" height="255.12"/></g><g id="Logo"><path class="cls-2" d="M589.46,82a50.68,50.68,0,0,0-10.68-16,51.2,51.2,0,0,0-15.91-10.86,50.58,50.58,0,0,0-39.31-.07,51.24,51.24,0,0,0-16,10.8,50.64,50.64,0,0,0-10.81,16,50.21,50.21,0,0,0,0,39,50,50,0,0,0,10.81,15.89,51.56,51.56,0,0,0,16,10.73,50.53,50.53,0,0,0,39.17,0,51.33,51.33,0,0,0,15.91-10.66,49.76,49.76,0,0,0,10.75-15.82,48.59,48.59,0,0,0,3.94-19.56A49.6,49.6,0,0,0,589.46,82m-46.38,48.42a29.06,29.06,0,1,1,29.06-29.06,29.07,29.07,0,0,1-29.06,29.06"/><polygon class="cls-2" points="128.13 151.56 107.58 151.56 107.58 87.46 79.28 128.7 50.83 87.46 50.83 151.56 30.29 151.56 30.29 51.13 50.83 51.13 79.14 92.36 107.58 51.13 128.13 51.13 128.13 151.56"/><polygon class="cls-2" points="237.4 51.12 190.17 151.56 212.5 151.56 237.36 99.17 261.83 151.56 284.5 151.56 237.4 51.12"/><path class="cls-2" d="M430.83,101.7a50.75,50.75,0,0,1-8.56,27.71,51.31,51.31,0,0,1-11.07,11.82,50.4,50.4,0,0,1-16.1,8.29c-.46.09-1.16.25-2.11.48s-2,.45-3.06.68-2.17.42-3.26.61a16.35,16.35,0,0,1-2.44.27H346.59V51.15h37.64a16.87,16.87,0,0,1,3.39.48q2.17.48,4.35,1c1.45.36,2.77.73,3.94,1.09s1.95.59,2.31.67A46,46,0,0,1,405,57.47,52.36,52.36,0,0,1,412,62.16a48.52,48.52,0,0,1,6.52,6.18,41.32,41.32,0,0,1,5.24,7.41l1.15,2c.41.73.79,1.5,1.16,2.31a69.76,69.76,0,0,1,3.6,10.74,47.9,47.9,0,0,1,1.15,10.87m-20.52-.82a27.62,27.62,0,0,0-1.15-7.67,31,31,0,0,0-3.53-7.82,30.26,30.26,0,0,0-6.05-6.93,29.81,29.81,0,0,0-8.56-5q-.54-.14-1.56-.48c-.68-.22-1.43-.43-2.24-.61l-2.38-.54a8.91,8.91,0,0,0-2-.27H367.11v59.64h16a13.8,13.8,0,0,0,3-.41c1.18-.27,2-.5,2.58-.68a29.46,29.46,0,0,0,10.19-5,29.15,29.15,0,0,0,6.66-7.2,27.94,27.94,0,0,0,3.67-8.35,36,36,0,0,0,1.08-8.7"/><polygon class="cls-2" points="108.19 177.07 114.19 200.21 114.26 200.21 120.7 177.07 123.85 177.07 130.32 200.21 130.4 200.21 136.43 177.07 138.95 177.07 131.66 203.5 128.99 203.5 122.29 179.85 122.22 179.85 115.56 203.5 112.82 203.5 105.49 177.07 108.19 177.07"/><polygon class="cls-2" points="181.44 177.07 181.44 179.22 165.71 179.22 165.71 188.77 180.44 188.77 180.44 190.92 165.71 190.92 165.71 201.35 181.62 201.35 181.62 203.5 163.19 203.5 163.19 177.07 181.44 177.07"/><path class="cls-2" d="M217.78,177.07a15.86,15.86,0,0,1,3.2.32,7.75,7.75,0,0,1,2.7,1.07,5.7,5.7,0,0,1,1.87,2,6.19,6.19,0,0,1,.71,3.09,6.08,6.08,0,0,1-.34,2,6,6,0,0,1-.94,1.77,6,6,0,0,1-1.44,1.35,5.45,5.45,0,0,1-1.87.78v.08a6.23,6.23,0,0,1,4.07,2.09,6.43,6.43,0,0,1,1.52,4.35,9.59,9.59,0,0,1-.12,1.42,7,7,0,0,1-.44,1.63,7,7,0,0,1-1,1.65,5.72,5.72,0,0,1-1.69,1.42,9.93,9.93,0,0,1-2.59,1,15.09,15.09,0,0,1-3.68.39H206.6V177.07Zm0,11.59a8.91,8.91,0,0,0,2.63-.35,5.49,5.49,0,0,0,1.85-1,4,4,0,0,0,1.11-1.42,4.09,4.09,0,0,0,.37-1.74q0-5-6-5h-8.66v9.44Zm0,12.69a14.26,14.26,0,0,0,2.67-.24,6.21,6.21,0,0,0,2.22-.87,4.46,4.46,0,0,0,1.51-1.68,5.65,5.65,0,0,0,.56-2.65,4.39,4.39,0,0,0-1.8-3.83,8.81,8.81,0,0,0-5.16-1.28h-8.66v10.55Z"/><path class="cls-2" d="M286.33,198.21a5.51,5.51,0,0,0,1.83,2.18,7.68,7.68,0,0,0,2.76,1.17,16,16,0,0,0,3.4.35,9.57,9.57,0,0,0,2.26-.3,7.68,7.68,0,0,0,2.27-.94,5.73,5.73,0,0,0,1.76-1.67,4.22,4.22,0,0,0,.71-2.46,3.61,3.61,0,0,0-.5-1.92,4.59,4.59,0,0,0-1.3-1.37,7.91,7.91,0,0,0-1.76-.91,16.17,16.17,0,0,0-1.89-.57L290,190.32a15.88,15.88,0,0,1-2.24-.74,6.39,6.39,0,0,1-1.91-1.18,5.62,5.62,0,0,1-1.31-1.81A6.3,6.3,0,0,1,284,184a8.26,8.26,0,0,1,.37-2.26,6.28,6.28,0,0,1,1.39-2.44,8.06,8.06,0,0,1,2.79-1.95,11.27,11.27,0,0,1,4.56-.79,13.08,13.08,0,0,1,3.73.52,9.08,9.08,0,0,1,3.11,1.55,7.49,7.49,0,0,1,2.93,6.14h-2.52a6.2,6.2,0,0,0-.68-2.64,6,6,0,0,0-1.6-1.89,7,7,0,0,0-2.25-1.15,9.21,9.21,0,0,0-2.69-.39,11.47,11.47,0,0,0-2.5.28,6.23,6.23,0,0,0-2.1.89,4.56,4.56,0,0,0-1.47,1.61,5.05,5.05,0,0,0-.55,2.48,3.82,3.82,0,0,0,.31,1.61,3.38,3.38,0,0,0,.87,1.17,4.46,4.46,0,0,0,1.28.77,9.11,9.11,0,0,0,1.53.48l6.44,1.6a18.73,18.73,0,0,1,2.65.9,8.85,8.85,0,0,1,2.19,1.34,5.7,5.7,0,0,1,1.48,1.94,6.61,6.61,0,0,1,.53,2.77,10.29,10.29,0,0,1-.09,1.19,6,6,0,0,1-.44,1.57,8.13,8.13,0,0,1-1,1.69,6.47,6.47,0,0,1-1.78,1.53,10,10,0,0,1-2.79,1.11,16.11,16.11,0,0,1-4,.43,16.51,16.51,0,0,1-4.33-.54,9.35,9.35,0,0,1-3.41-1.65,7.17,7.17,0,0,1-2.16-2.85,9.32,9.32,0,0,1-.65-4.18h2.52a7.33,7.33,0,0,0,.63,3.41"/><polygon class="cls-2" points="347.39 177.07 347.39 179.22 338.18 179.22 338.18 203.5 335.66 203.5 335.66 179.22 326.48 179.22 326.48 177.07 347.39 177.07"/><path class="cls-2" d="M373.6,177.07v16.36a12.77,12.77,0,0,0,.52,3.91,6.47,6.47,0,0,0,1.51,2.62,5.89,5.89,0,0,0,2.45,1.49,10.85,10.85,0,0,0,3.25.46,11.05,11.05,0,0,0,3.3-.46,5.92,5.92,0,0,0,2.44-1.49,6.48,6.48,0,0,0,1.52-2.62,13.08,13.08,0,0,0,.52-3.91V177.07h2.51V194a13,13,0,0,1-.57,3.87,8.24,8.24,0,0,1-5,5.36,14.21,14.21,0,0,1-9.4,0,8.7,8.7,0,0,1-3.18-2.16,8.45,8.45,0,0,1-1.81-3.2,12.73,12.73,0,0,1-.58-3.87V177.07Z"/><path class="cls-2" d="M427.3,177.07q6,.15,9.09,3.39t3.05,9.83q0,6.59-3.05,9.82t-9.09,3.39h-9.14V177.07ZM426,201.35a17.28,17.28,0,0,0,4.91-.61,7.69,7.69,0,0,0,3.38-1.94,8,8,0,0,0,2-3.44,20.72,20.72,0,0,0,0-10.14,8,8,0,0,0-2-3.45,7.88,7.88,0,0,0-3.38-1.94,17.28,17.28,0,0,0-4.91-.61h-5.36v22.13Z"/><rect class="cls-2" x="465.16" y="177.07" width="2.52" height="26.43"/><path class="cls-2" d="M494,185.07a13.12,13.12,0,0,1,2.33-4.39,11.22,11.22,0,0,1,3.91-3,12.39,12.39,0,0,1,5.46-1.13,12.24,12.24,0,0,1,5.44,1.13,11.33,11.33,0,0,1,3.89,3,13.12,13.12,0,0,1,2.33,4.39,18.08,18.08,0,0,1,0,10.44,13,13,0,0,1-2.33,4.36,11.43,11.43,0,0,1-3.89,3,12.38,12.38,0,0,1-5.44,1.13,12.53,12.53,0,0,1-5.46-1.13,11.32,11.32,0,0,1-3.91-3,13,13,0,0,1-2.33-4.36,18.08,18.08,0,0,1,0-10.44m2.32,9.45a11.33,11.33,0,0,0,1.77,3.74,8.94,8.94,0,0,0,3.09,2.65,9.63,9.63,0,0,0,4.52,1,9.52,9.52,0,0,0,4.5-1,9.06,9.06,0,0,0,3.07-2.65,11.33,11.33,0,0,0,1.77-3.74,15.82,15.82,0,0,0,0-8.49,11.42,11.42,0,0,0-1.77-3.72,9.06,9.06,0,0,0-3.07-2.65,9.52,9.52,0,0,0-4.5-1,9.63,9.63,0,0,0-4.52,1,8.94,8.94,0,0,0-3.09,2.65,11.42,11.42,0,0,0-1.77,3.72,15.82,15.82,0,0,0,0,8.49"/></g></svg>