<svg xmlns="http://www.w3.org/2000/svg" viewBox="0 0 623.62 255.12"><defs><style>.cls-1{fill:#fff;}.cls-2{fill:#2e3843;}.cls-3{fill:#c72127;}.cls-4{fill:#9c1519;}</style></defs><title>motor-k</title><g id="BG"><rect class="cls-1" width="623.62" height="255.12"/></g><g id="Logo"><path class="cls-2" d="M112,92.17v70.77c0,3.49-1.12,4.62-4.72,4.62H95c-3.6,0-4.83-1.13-4.83-4.62V146.83c0-7.44.67-14.54,4.95-29.53H94a167.92,167.92,0,0,1-7.64,18.59l-6.29,12.73c-1.12,2.25-2.25,3.27-5.28,3.27H67.15c-3,0-4.16-.79-5.39-3.27L55.23,135.9c-2.36-4.28-5.84-14.65-7-18.59H47c4.16,16.23,4.61,21.86,4.61,29.64v16c0,3.49-1.12,4.62-4.72,4.62H35.34c-3.48,0-4.72-1.13-4.72-4.62V92.17c0-3.61,1.24-4.73,4.72-4.73H45.91c3.93,0,5.17.68,6.74,3.49l18.43,36.51L89.63,91c1.69-3,2.7-3.61,6.29-3.61h11.35C110.87,87.44,112,88.57,112,92.17Z"/><path class="cls-2" d="M161,85.86c22.25,0,34.62,12.06,34.62,31.55V137.7c0,19.5-12.36,31.55-34.62,31.55s-34.51-12.06-34.51-31.55V117.42C126.48,97.92,138.84,85.86,161,85.86Zm0,19.72c-7.76,0-12.25,3.72-12.25,10.82v22.31c0,7.1,4.5,10.82,12.25,10.82s12.36-3.72,12.36-10.82V116.4C173.35,109.3,168.85,105.58,161,105.58Z"/><path class="cls-2" d="M270,92.28v10.14c0,3.61-1.24,4.85-4.72,4.85H248.53v55.56c0,3.49-1.24,4.73-4.72,4.73H231c-3.48,0-4.72-1.24-4.72-4.73V107.27H209.53c-3.48,0-4.72-1.24-4.72-4.85V92.28c0-3.49,1.24-4.73,4.72-4.73h55.75C268.76,87.55,270,88.79,270,92.28Z"/><path class="cls-2" d="M313.49,85.86c22.25,0,34.62,12.06,34.62,31.55V137.7c0,19.5-12.36,31.55-34.62,31.55S279,157.2,279,137.7V117.42C279,97.92,291.35,85.86,313.49,85.86Zm0,19.72c-7.75,0-12.25,3.72-12.25,10.82v22.31c0,7.1,4.5,10.82,12.25,10.82s12.36-3.72,12.36-10.82V116.4C325.85,109.3,321.35,105.58,313.49,105.58Z"/><path class="cls-2" d="M427.33,114.71c0,11-4.38,18.93-12,23.21,1,1.47,2,3,3,4.85L428.45,162c1.57,3,.79,5.52-2.92,5.52H413.28c-6,0-8.43-1.47-10.34-5.41l-7.19-15.44c-1.8-3.83-3.71-5.75-8.32-5.75h-2.59v21.86c0,3.49-1.24,4.73-4.72,4.73H367.31c-3.48,0-4.72-1.24-4.72-4.73V92.28c0-3.49,1.24-4.73,4.72-4.73h32.14C416.43,87.55,427.33,97.24,427.33,114.71Zm-30.46-7.44h-12v14.88h12c4.83,0,7.42-2.93,7.42-7.55S401.7,107.27,396.87,107.27Z"/><path class="cls-3" d="M528,62.5h-70.9a8.14,8.14,0,0,0-8.14,8.14V184.48a8.15,8.15,0,0,0,8.14,8.15H528A65.06,65.06,0,0,0,528,62.5Zm43.81,73.21a8.15,8.15,0,1,1,8.14-8.15A8.15,8.15,0,0,1,571.79,135.71Z"/><path class="cls-4" d="M496.85,117.64h2.4L508,103.86l-12-13.8h0a5.16,5.16,0,0,1,.86,3.39Z"/><path class="cls-4" d="M577.15,133.65a8.11,8.11,0,1,1-10.64-12.25l-27.4-31.53v0c.73.85.69,2.16-.31,3.78L519,125.27a21.9,21.9,0,0,1,6.65,8.39L540,160.9c1.53,2.94.76,5.34-2.83,5.34H525.39c-5.78,0-7.84-.76-9.7-4.58l-9.48-19.5c-1.74-3.49-3.27-5.45-7.41-5.45h-2v25c0,3.38-1.09,4.58-4.58,4.58H480c-2.08,0-3.33-.44-4-1.5l0,0,24.21,27.86H528a65.08,65.08,0,0,0,61.7-44.56Z"/><path class="cls-1" d="M537.16,166.24H525.28c-5.77,0-7.74-.76-9.59-4.58l-9.48-19.5c-1.74-3.49-3.38-5.45-7.52-5.45h-1.85v25c0,3.38-1.2,4.58-4.58,4.58H479.85c-3.38,0-4.58-1.2-4.58-4.58V93.45c0-3.38,1.2-4.58,4.58-4.58h12.42c3.38,0,4.58,1.2,4.58,4.58v24.19h2.4l15.58-24.74c2.18-3.38,3.16-4,8.72-4h12.64c3.27,0,4.25,2,2.62,4.79L519,125.27a24.16,24.16,0,0,1,6.65,8.39L540,160.9C541.52,163.84,540.76,166.24,537.16,166.24Z"/></g></svg>