<svg xmlns="http://www.w3.org/2000/svg" viewBox="0 0 623.62 255.12"><defs><style>.cls-1{fill:#fff;}.cls-2,.cls-3{fill:#1d1d1b;}.cls-2,.cls-4,.cls-5{fill-rule:evenodd;}.cls-4{fill:#a1b061;}.cls-5{fill:#e0ebc5;}</style></defs><title>siteground</title><g id="BG"><rect class="cls-1" width="623.62" height="255.12"/></g><g id="Logo"><path class="cls-2" d="M148.75,90.64c-8.84-14.69-28.62-6.28-24.39,10.67,5.67,22.75,33.37,28.2,43.58,48.48,5.6,11.14,2.09,22.27-6.48,27.16-8.8,5-23.66,7-32.8.3-4.58-3.36-4.2-5.89-6.61.43-.78,2-2.07,4.26-4.59,2.12-4-3.37-3.88-14.06,2.8-18.6,4.26-2.27,7.14-1.07,11.09,2.83,9.57,7.86,21.74,5.52,24.89-1,2-4.19,0-10.73-4.08-15.3-5.88-6.61-15.16-12.3-22.79-21.22-10.07-11.76-17.75-24.92-12.73-37.89C121,77.35,133.55,67,148.36,74.45,157.11,78.88,165.65,89,160.76,99c-3.38,6.92-13.82,9.15-18.65,2-2.91-4.32,9.09-6.37,6.65-10.37Z"/><path class="cls-2" d="M187.39,114.32c.4,12.51-13.81,11.54-14.19-.47-.18-5.42,4.24-6.9,7.15-6.7a8.34,8.34,0,0,1,4.52,2.11,7,7,0,0,1,2.53,5.06Z"/><path class="cls-2" d="M174.3,142.27l-.6.36c-6,3.37-4.22-3.51-1-7.56s6-5.61,8.58-5.26a4.88,4.88,0,0,1,4.42,3.62c1.64,7.94-7.29,30.19,2.16,36.06a4.07,4.07,0,0,0,5.44-.89c1.78-2.07,2-5.45,4.24-6.12,1-.3,1.82.12,2.19,2.78.66,8-2.9,19.4-13.78,15.49-9.68-4.41-9.26-22.92-9.23-33.07,0-.69-.26-6.76-2.46-5.41Z"/><path class="cls-3" d="M244.39,128.52c-.91-2.1-2.35-3.44-4.61-3.35-5.34.42-6.38.21-11.36.51s-9.26.51-12.81.64q1-9.15,2.08-18.31,2.89-26.62.26-32.77-2-4.66-6.37-3.65c-4.55.84-5.63,8.7-6.13,23.46-.24,8.34.45,18.9,1.6,32.82-1.09.27-4.41,1.23-6.59,1.88a26.14,26.14,0,0,0-5.21,2,2.32,2.32,0,0,0-1.11,2.32,10.76,10.76,0,0,0,1,4.1q2.64,6.15,8.16,18.69t7.44,17q3.34,7.81,8.67,7.62,4.29-.16,5.12-1.2t-.87-5a88,88,0,0,1-6.29-21.72,144.74,144.74,0,0,1-.91-17.06c11.13-2.56,18.76-1.87,25.15-3.57l.33-.12c2.47-1.55,1.1-.75,2-1.68A2.07,2.07,0,0,0,244.39,128.52Zm-33.55,34.66-.32.42-.51,0s-.24-.47-.91-1.85-3.16-10.28-3.3-10.43-2.34-8.37-2.59-9.24a2.56,2.56,0,0,1-.07-1.44,3.52,3.52,0,0,1,.84-1.16,11.82,11.82,0,0,1,2.72-1.18l.43,0,.38.7.26,1.75.65,4.37,2,12.55.67,4.77Z"/><path class="cls-2" d="M283.27,167.5c-6.89,8.61-16.6,16.44-27.56,13.34-6.24-2.22-10.29-8.35-12.31-15.81a48.81,48.81,0,0,1-.42-22.41c2.48-11.34,9.33-20.66,17.34-20.76,15,1.5,22.75,18.15,15.07,29.89-4.27,6.53-13.13,9.86-17.42,11.92-1.62.78-2.91,1.14-2.69,4.32.52,7.62,13.43,7.5,21.56-9.31.75-1.55,5.83-8.22,9.14-6.22,6.94,4.2-1.86,14-2.71,15ZM251.69,157c9-2.89,16.45-10.71,17.12-15,1.27-8.08-11.1-15-15.67-1.78-1.16,3.38-1.48,10.83-1.45,16.76Z"/><path class="cls-2" d="M344,137.78c-.66,6.79,9.61,41.93,2.23,42.53-4.36.36-7,.81-8.18-1.53s3.2-20.31-.32-14.83c-.81,1.26-.65,1.36-2,3.69-12.11,21.65-28.53,15.9-38.07-1.71-5.73-10.57-9-25.4-7.35-41.15,2.61-25.12,13.39-58.05,38.74-52.64,19.92,4.25,6.2,30.88-.76,24.08-16.45-36.06-49.27,51-13,72,10.48,6.08,19.45-13.73,17.3-22.45-1.51-6.12-1.86-6.34-4.9-5.42-2.36.71-10.47,7.66-12.74,5.56-2.84-2.63-4.37-13,1.32-13.28,6.58-.34,10.31,1.79,18.08-7.59,7.06-8.53,12.82-6,11.61,3.25-.53,4-1.72,6.35-2,9.46Z"/><path class="cls-2" d="M390.61,124.87c-4.09-3.16-12.74-6.9-20.66-6.08-11.05,1.14-21.28,8.58-20.23,20.2.45,5,.95,26.13,2.84,34.83.65,3,2.35,5.75,5.28,6.54,2.77.75,6.27,0,7.61-3.16,1.82-4.25-.19-8.2-1.22-11.8-2.09-7.33-3-17.53-3.64-23.84-1.22-13,18.44-14.75,23.08-7.2-3.34,5.16,1.5,8.4,7.55,3.72,5.46-4.23,3.27-10.21-.62-13.21Z"/><path class="cls-2" d="M417.46,181.51c27.21-4.59,37.67-46.9,3.93-61.33-35.11-11.37-36.92,68.25-3.93,61.33Zm-12.34-34.12c3.19-33.24,25.05-17.77,27.87,3.88,2.8,21.46-32.55,34.32-27.87-3.88Z"/><path class="cls-2" d="M456.72,138.06c-4.2,9.44-2.55,47.31,17,29.37,4.26-3.91,4.8-16.48,3.2-27.23-.37-2.48-2.46-10-3.17-12.3-.89-2.9,1.52-7,5.19-8.19a6.31,6.31,0,0,1,7.56,3.7c2,4.85.7,12.8.48,16.05-.65,9.7-2.23,21.65,1.22,27.92,1.47,2.68,3.51,3,3.58,5,.26,7.14-8.24,11.72-11.47,7.29-.86-1.18-.15-3.13-1.46-4-16.05,14.41-33.73,3.11-33.46-17.53.06-4.51-.57-11.88,1.07-18.27,1.27-5,2.08-9.71,4.67-12.4,3.4-2.46,5.16-1,6.24-.17,2.38,1.79.6,7.44-.62,10.83Z"/><path class="cls-2" d="M528.5,170.25c2.86-9.74,6.21-25.63,4.07-31.51-3.21-8.81-15.42-12-21.45-3-3.7,5.53-3.8,25.33.91,36.91,1.12,2.77-1,6.63-4.53,7.81-13.43,4.45-3-32.78-10.83-44.67-1.69-2.56-3.75-2.81-4-4.72-.83-6.82,7.31-11.18,10.89-7,1,1.13.39,3,1.77,3.83,14.9-13.75,37.07-3.42,38.44,16.28.46,6.62-1.47,21-5.24,30.1a21,21,0,0,1-3.58,6.12c-3.2,2.34-5.08.94-6.22.16-2.52-1.71-1.18-7.09-.23-10.33Z"/><path class="cls-2" d="M587.68,126.93c1.27-10.67-3.2-41.68-11.4-42.46-2.21-.21-2.73-5.59-1.22-8.78s5-4.2,10.95-1.76c9.46,3.91,10.17,39.43,10.37,50.13.18,10.28-.32,23,1.26,32.78a36.35,36.35,0,0,0,2.68,9c1.72,3.9,3.44,6.61,2.33,8.82-2.4,4.78-9.72,6.66-12.21,4.29-1.72-1.64-2.49-4.61-2.93-8.08-14.13,22.48-36.54,4.79-39.71-16.83-3.06-20.86,15.94-45.08,39.88-27.15Zm-22.07,41.42c17.73,12.84,23.32-20.44,14.49-32.76-10.83-15.11-38.26,14.22-14.49,32.76Z"/><path class="cls-4" d="M47.51,160.75c-13.86-4.53-23.76-18-26.18-32.12C14.65,89.68,56.1,54.53,97.51,74,98,82.8,93.94,95.25,82.78,99c55.35,34.94,8,106.53-50,83-10.59-5.4-4.93-15.26,6.38-9.55,12.64,4.36,29.05,4.36,39.4-1.36a46.8,46.8,0,0,0,16.84-15,48.61,48.61,0,0,0,4-7.39c.88-2.06,3.7-10.59,1.51-11.51-.55-.23-.84.42-1,1a36.12,36.12,0,0,1-7.92,15,40,40,0,0,1-17.1,11.7c-8.27,3-17.86,3.39-31,.51.87-.94,2.62-3.56,3.63-4.63ZM85.73,77.54a27.23,27.23,0,0,1,.37,3.86C86.31,87.88,84.55,92,80,96.6q-1.4,1.4-3.16,2.91c15.63,9.72,23.79,31,14.72,45.83-12.25,20-36.51,15.46-49.77,1.76-13.88-14.35-12-32.91-2.07-46.67,10.28-14.2,29.19-23.37,46-22.88Z"/><path class="cls-2" d="M38.61,121.48c3-29.7,37.15-35.59,49.86,4,10.25,40.69-54.57,31.84-49.86-4ZM66.48,141c27,1,14.06-26.62-3.66-32.72-17.56-6-27.33,32.72,3.66,32.72Z"/><path class="cls-5" d="M66.48,141c27,1,14.06-26.62-3.66-32.72-17.56-6-27.33,32.72,3.66,32.72Z"/></g></svg>